<?xml version="1.0" encoding="UTF-8" standalone="no"?><svg xmlns="http://www.w3.org/2000/svg" xmlns:xlink="http://www.w3.org/1999/xlink" contentStyleType="text/css" height="1640px" preserveAspectRatio="none" style="width:1414px;height:1640px;background:#FFFFFF;" version="1.1" viewBox="0 0 1414 1640" width="1414px" zoomAndPan="magnify"><defs/><g><rect fill="#FFFFFF" height="74.3984" style="stroke:#181818;stroke-width:1.0;" width="10" x="79.5" y="46.2969"/><rect fill="#FFFFFF" height="29.1328" style="stroke:#181818;stroke-width:1.0;" width="10" x="79.5" y="549.0313"/><rect fill="#FFFFFF" height="29.1328" style="stroke:#181818;stroke-width:1.0;" width="10" x="79.5" y="638.4297"/><rect fill="#FFFFFF" height="121.3359" style="stroke:#181818;stroke-width:1.0;" width="10" x="79.5" y="1350.7969"/><rect fill="#FFFFFF" height="9" style="stroke:#181818;stroke-width:1.0;" width="10" x="79.5" y="1587.5313"/><rect fill="#FFFFFF" height="1520.1016" style="stroke:#181818;stroke-width:1.0;" width="10" x="366.5" y="67.4297"/><rect fill="#FFFFFF" height="141.3359" style="stroke:#181818;stroke-width:1.0;" width="10" x="715.5" y="173.9609"/><rect fill="#FFFFFF" height="97.3984" style="stroke:#181818;stroke-width:1.0;" width="10" x="715.5" y="710.6953"/><rect fill="#FFFFFF" height="216.4063" style="stroke:#181818;stroke-width:1.0;" width="10" x="830.5" y="203.0938"/><rect fill="#FFFFFF" height="128.5313" style="stroke:#181818;stroke-width:1.0;" width="10" x="830.5" y="739.8281"/><rect fill="#FFFFFF" height="139.3359" style="stroke:#181818;stroke-width:1.0;" width="10" x="995" y="889.4922"/><rect fill="#FFFFFF" height="212.6016" style="stroke:#181818;stroke-width:1.0;" width="10" x="1205" y="1109.0625"/><rect height="1476.9688" style="stroke:#000000;stroke-width:1.5;fill:none;" width="1398" x="10" y="82.4297"/><rect height="546.8672" style="stroke:#000000;stroke-width:1.5;fill:none;" width="878" x="30" y="135.6953"/><rect height="90.2031" style="stroke:#000000;stroke-width:1.5;fill:none;" width="460" x="323" y="218.0938"/><rect height="90.2031" style="stroke:#000000;stroke-width:1.5;fill:none;" width="575" x="323" y="322.2969"/><rect height="75.3984" style="stroke:#000000;stroke-width:1.5;fill:none;" width="380" x="40" y="510.7656"/><rect height="75.3984" style="stroke:#000000;stroke-width:1.5;fill:none;" width="380" x="40" y="600.1641"/><rect height="46.2656" style="stroke:#000000;stroke-width:1.5;fill:none;" width="460" x="323" y="754.8281"/><rect height="46.2656" style="stroke:#000000;stroke-width:1.5;fill:none;" width="575" x="323" y="815.0938"/><rect height="134.3047" style="stroke:#000000;stroke-width:1.5;fill:none;" width="1072" x="40" y="946.625"/><rect height="428.3359" style="stroke:#000000;stroke-width:1.5;fill:none;" width="1378" x="20" y="1124.0625"/><rect height="59.2656" style="stroke:#000000;stroke-width:1.5;fill:none;" width="283.5" x="323" y="1219.4609"/><rect height="179.6016" style="stroke:#000000;stroke-width:1.5;fill:none;" width="878" x="30" y="1365.7969"/><rect height="104.5313" style="stroke:#000000;stroke-width:1.5;fill:none;" width="858" x="40" y="1433.8672"/><line style="stroke:#181818;stroke-width:0.5;fill:none;stroke-dasharray:5.0,5.0;" x1="84" x2="84" y1="36.2969" y2="1605.5313"/><line style="stroke:#181818;stroke-width:0.5;fill:none;stroke-dasharray:5.0,5.0;" x1="371" x2="371" y1="36.2969" y2="1605.5313"/><line style="stroke:#181818;stroke-width:0.5;fill:none;stroke-dasharray:5.0,5.0;" x1="720" x2="720" y1="36.2969" y2="1605.5313"/><line style="stroke:#181818;stroke-width:0.5;fill:none;stroke-dasharray:5.0,5.0;" x1="835" x2="835" y1="36.2969" y2="1605.5313"/><line style="stroke:#181818;stroke-width:0.5;fill:none;stroke-dasharray:5.0,5.0;" x1="1000" x2="1000" y1="36.2969" y2="1605.5313"/><line style="stroke:#181818;stroke-width:0.5;fill:none;stroke-dasharray:5.0,5.0;" x1="1210" x2="1210" y1="36.2969" y2="1605.5313"/><rect fill="#E2E2F0" height="30.2969" rx="2.5" ry="2.5" style="stroke:#181818;stroke-width:0.5;" width="69" x="50" y="5"/><text fill="#000000" font-family="sans-serif" font-size="14" lengthAdjust="spacing" textLength="55" x="57" y="24.9951">Initiator</text><rect fill="#E2E2F0" height="30.2969" rx="2.5" ry="2.5" style="stroke:#181818;stroke-width:0.5;" width="69" x="50" y="1604.5313"/><text fill="#000000" font-family="sans-serif" font-size="14" lengthAdjust="spacing" textLength="55" x="57" y="1624.5264">Initiator</text><rect fill="#E2E2F0" height="30.2969" rx="2.5" ry="2.5" style="stroke:#181818;stroke-width:0.5;" width="77" x="333" y="5"/><text fill="#000000" font-family="sans-serif" font-size="14" lengthAdjust="spacing" textLength="63" x="340" y="24.9951">Software</text><rect fill="#E2E2F0" height="30.2969" rx="2.5" ry="2.5" style="stroke:#181818;stroke-width:0.5;" width="77" x="333" y="1604.5313"/><text fill="#000000" font-family="sans-serif" font-size="14" lengthAdjust="spacing" textLength="63" x="340" y="1624.5264">Software</text><rect fill="#E2E2F0" height="30.2969" rx="2.5" ry="2.5" style="stroke:#181818;stroke-width:0.5;" width="105" x="668" y="5"/><text fill="#000000" font-family="sans-serif" font-size="14" lengthAdjust="spacing" textLength="91" x="675" y="24.9951">Teilnehmer1</text><rect fill="#E2E2F0" height="30.2969" rx="2.5" ry="2.5" style="stroke:#181818;stroke-width:0.5;" width="105" x="668" y="1604.5313"/><text fill="#000000" font-family="sans-serif" font-size="14" lengthAdjust="spacing" textLength="91" x="675" y="1624.5264">Teilnehmer1</text><rect fill="#E2E2F0" height="30.2969" rx="2.5" ry="2.5" style="stroke:#181818;stroke-width:0.5;" width="105" x="783" y="5"/><text fill="#000000" font-family="sans-serif" font-size="14" lengthAdjust="spacing" textLength="91" x="790" y="24.9951">Teilnehmer2</text><rect fill="#E2E2F0" height="30.2969" rx="2.5" ry="2.5" style="stroke:#181818;stroke-width:0.5;" width="105" x="783" y="1604.5313"/><text fill="#000000" font-family="sans-serif" font-size="14" lengthAdjust="spacing" textLength="91" x="790" y="1624.5264">Teilnehmer2</text><rect fill="#E2E2F0" height="30.2969" rx="2.5" ry="2.5" style="stroke:#181818;stroke-width:0.5;" width="204" x="898" y="5"/><text fill="#000000" font-family="sans-serif" font-size="14" lengthAdjust="spacing" textLength="190" x="905" y="24.9951">Raumreservierungssystem</text><rect fill="#E2E2F0" height="30.2969" rx="2.5" ry="2.5" style="stroke:#181818;stroke-width:0.5;" width="204" x="898" y="1604.5313"/><text fill="#000000" font-family="sans-serif" font-size="14" lengthAdjust="spacing" textLength="190" x="905" y="1624.5264">Raumreservierungssystem</text><rect fill="#E2E2F0" height="30.2969" rx="2.5" ry="2.5" style="stroke:#181818;stroke-width:0.5;" width="104" x="1158" y="5"/><text fill="#000000" font-family="sans-serif" font-size="14" lengthAdjust="spacing" textLength="90" x="1165" y="24.9951">Hausmeister</text><rect fill="#E2E2F0" height="30.2969" rx="2.5" ry="2.5" style="stroke:#181818;stroke-width:0.5;" width="104" x="1158" y="1604.5313"/><text fill="#000000" font-family="sans-serif" font-size="14" lengthAdjust="spacing" textLength="90" x="1165" y="1624.5264">Hausmeister</text><rect fill="#FFFFFF" height="74.3984" style="stroke:#181818;stroke-width:1.0;" width="10" x="79.5" y="46.2969"/><rect fill="#FFFFFF" height="29.1328" style="stroke:#181818;stroke-width:1.0;" width="10" x="79.5" y="549.0313"/><rect fill="#FFFFFF" height="29.1328" style="stroke:#181818;stroke-width:1.0;" width="10" x="79.5" y="638.4297"/><rect fill="#FFFFFF" height="121.3359" style="stroke:#181818;stroke-width:1.0;" width="10" x="79.5" y="1350.7969"/><rect fill="#FFFFFF" height="9" style="stroke:#181818;stroke-width:1.0;" width="10" x="79.5" y="1587.5313"/><rect fill="#FFFFFF" height="1520.1016" style="stroke:#181818;stroke-width:1.0;" width="10" x="366.5" y="67.4297"/><rect fill="#FFFFFF" height="141.3359" style="stroke:#181818;stroke-width:1.0;" width="10" x="715.5" y="173.9609"/><rect fill="#FFFFFF" height="97.3984" style="stroke:#181818;stroke-width:1.0;" width="10" x="715.5" y="710.6953"/><rect fill="#FFFFFF" height="216.4063" style="stroke:#181818;stroke-width:1.0;" width="10" x="830.5" y="203.0938"/><rect fill="#FFFFFF" height="128.5313" style="stroke:#181818;stroke-width:1.0;" width="10" x="830.5" y="739.8281"/><rect fill="#FFFFFF" height="139.3359" style="stroke:#181818;stroke-width:1.0;" width="10" x="995" y="889.4922"/><rect fill="#FFFFFF" height="212.6016" style="stroke:#181818;stroke-width:1.0;" width="10" x="1205" y="1109.0625"/><line style="stroke:#181818;stroke-width:1.0;" x1="364.5" x2="354.5" y1="67.4297" y2="63.4297"/><line style="stroke:#181818;stroke-width:1.0;" x1="364.5" x2="354.5" y1="67.4297" y2="71.4297"/><line style="stroke:#181818;stroke-width:1.0;" x1="89.5" x2="365.5" y1="67.4297" y2="67.4297"/><text fill="#000000" font-family="sans-serif" font-size="13" font-weight="bold" lengthAdjust="spacing" textLength="9" x="96.5" y="62.3638">1</text><text fill="#000000" font-family="sans-serif" font-size="13" lengthAdjust="spacing" textLength="106" x="109.5" y="62.3638">Initiiere Meeting</text><path d="M10,82.4297 L86,82.4297 L86,89.5625 L76,99.5625 L10,99.5625 L10,82.4297 " fill="#EEEEEE" style="stroke:#000000;stroke-width:1.5;"/><rect fill="none" height="1476.9688" style="stroke:#000000;stroke-width:1.5;" width="1398" x="10" y="82.4297"/><text fill="#000000" font-family="sans-serif" font-size="13" font-weight="bold" lengthAdjust="spacing" textLength="31" x="25" y="95.4966">loop</text><text fill="#000000" font-family="sans-serif" font-size="11" font-weight="bold" lengthAdjust="spacing" textLength="94" x="101" y="94.6401">[if Umplanung]</text><polygon fill="#181818" points="354.5,116.6953,364.5,120.6953,354.5,124.6953,358.5,120.6953" style="stroke:#181818;stroke-width:1.0;"/><line style="stroke:#181818;stroke-width:1.0;" x1="84.5" x2="360.5" y1="120.6953" y2="120.6953"/><text fill="#000000" font-family="sans-serif" font-size="13" font-weight="bold" lengthAdjust="spacing" textLength="9" x="91.5" y="115.6294">2</text><text fill="#000000" font-family="sans-serif" font-size="13" lengthAdjust="spacing" textLength="188" x="104.5" y="115.6294">Meeting-Bereich, Teilnehmer</text><path d="M30,135.6953 L106,135.6953 L106,142.8281 L96,152.8281 L30,152.8281 L30,135.6953 " fill="#EEEEEE" style="stroke:#000000;stroke-width:1.5;"/><rect fill="none" height="546.8672" style="stroke:#000000;stroke-width:1.5;" width="878" x="30" y="135.6953"/><text fill="#000000" font-family="sans-serif" font-size="13" font-weight="bold" lengthAdjust="spacing" textLength="31" x="45" y="148.7622">loop</text><text fill="#000000" font-family="sans-serif" font-size="11" font-weight="bold" lengthAdjust="spacing" textLength="159" x="121" y="147.9058">[if kein Termin gefunden]</text><line style="stroke:#181818;stroke-width:1.0;" x1="713.5" x2="703.5" y1="173.9609" y2="169.9609"/><line style="stroke:#181818;stroke-width:1.0;" x1="713.5" x2="703.5" y1="173.9609" y2="177.9609"/><line style="stroke:#181818;stroke-width:1.0;" x1="376.5" x2="714.5" y1="173.9609" y2="173.9609"/><text fill="#000000" font-family="sans-serif" font-size="13" font-weight="bold" lengthAdjust="spacing" textLength="9" x="383.5" y="168.895">3</text><text fill="#000000" font-family="sans-serif" font-size="13" lengthAdjust="spacing" textLength="307" x="396.5" y="168.895">Vorzugstermine?, Ausschlusstermine?, Geräte?</text><line style="stroke:#181818;stroke-width:1.0;" x1="828.5" x2="818.5" y1="203.0938" y2="199.0938"/><line style="stroke:#181818;stroke-width:1.0;" x1="828.5" x2="818.5" y1="203.0938" y2="207.0938"/><line style="stroke:#181818;stroke-width:1.0;" x1="376.5" x2="829.5" y1="203.0938" y2="203.0938"/><text fill="#000000" font-family="sans-serif" font-size="13" font-weight="bold" lengthAdjust="spacing" textLength="9" x="383.5" y="198.0278">4</text><text fill="#000000" font-family="sans-serif" font-size="13" lengthAdjust="spacing" textLength="307" x="396.5" y="198.0278">Vorzugstermine?, Ausschlusstermine?, Geräte?</text><path d="M323,218.0938 L387,218.0938 L387,225.2266 L377,235.2266 L323,235.2266 L323,218.0938 " fill="#EEEEEE" style="stroke:#000000;stroke-width:1.5;"/><rect fill="none" height="90.2031" style="stroke:#000000;stroke-width:1.5;" width="460" x="323" y="218.0938"/><text fill="#000000" font-family="sans-serif" font-size="13" font-weight="bold" lengthAdjust="spacing" textLength="19" x="338" y="231.1606">alt</text><text fill="#000000" font-family="sans-serif" font-size="11" font-weight="bold" lengthAdjust="spacing" textLength="82" x="402" y="230.3042">[Teilnahme1]</text><line style="stroke:#181818;stroke-width:1.0;" x1="376.5" x2="386.5" y1="256.3594" y2="252.3594"/><line style="stroke:#181818;stroke-width:1.0;" x1="376.5" x2="386.5" y1="256.3594" y2="260.3594"/><line style="stroke:#181818;stroke-width:1.0;" x1="376.5" x2="714.5" y1="256.3594" y2="256.3594"/><text fill="#000000" font-family="sans-serif" font-size="13" font-weight="bold" lengthAdjust="spacing" textLength="9" x="393.5" y="251.2935">5</text><text fill="#000000" font-family="sans-serif" font-size="13" lengthAdjust="spacing" textLength="290" x="406.5" y="251.2935">Vorzugstermine , Ausschlusstermine, Geräte</text><line style="stroke:#000000;stroke-width:1.0;stroke-dasharray:2.0,2.0;" x1="323" x2="783" y1="265.3594" y2="265.3594"/><text fill="#000000" font-family="sans-serif" font-size="11" font-weight="bold" lengthAdjust="spacing" textLength="56" x="328" y="275.5698">[Ansage]</text><line style="stroke:#181818;stroke-width:1.0;" x1="376.5" x2="386.5" y1="300.2969" y2="296.2969"/><line style="stroke:#181818;stroke-width:1.0;" x1="376.5" x2="386.5" y1="300.2969" y2="304.2969"/><line style="stroke:#181818;stroke-width:1.0;" x1="376.5" x2="714.5" y1="300.2969" y2="300.2969"/><text fill="#000000" font-family="sans-serif" font-size="13" font-weight="bold" lengthAdjust="spacing" textLength="9" x="393.5" y="295.231">6</text><text fill="#000000" font-family="sans-serif" font-size="13" lengthAdjust="spacing" textLength="109" x="406.5" y="295.231">keine Teilnahme</text><path d="M323,322.2969 L387,322.2969 L387,329.4297 L377,339.4297 L323,339.4297 L323,322.2969 " fill="#EEEEEE" style="stroke:#000000;stroke-width:1.5;"/><rect fill="none" height="90.2031" style="stroke:#000000;stroke-width:1.5;" width="575" x="323" y="322.2969"/><text fill="#000000" font-family="sans-serif" font-size="13" font-weight="bold" lengthAdjust="spacing" textLength="19" x="338" y="335.3638">alt</text><text fill="#000000" font-family="sans-serif" font-size="11" font-weight="bold" lengthAdjust="spacing" textLength="82" x="402" y="334.5073">[Teilnahme2]</text><line style="stroke:#181818;stroke-width:1.0;" x1="376.5" x2="386.5" y1="360.5625" y2="356.5625"/><line style="stroke:#181818;stroke-width:1.0;" x1="376.5" x2="386.5" y1="360.5625" y2="364.5625"/><line style="stroke:#181818;stroke-width:1.0;" x1="376.5" x2="829.5" y1="360.5625" y2="360.5625"/><text fill="#000000" font-family="sans-serif" font-size="13" font-weight="bold" lengthAdjust="spacing" textLength="9" x="393.5" y="355.4966">7</text><text fill="#000000" font-family="sans-serif" font-size="13" lengthAdjust="spacing" textLength="290" x="406.5" y="355.4966">Vorzugstermine , Ausschlusstermine, Geräte</text><line style="stroke:#000000;stroke-width:1.0;stroke-dasharray:2.0,2.0;" x1="323" x2="898" y1="369.5625" y2="369.5625"/><text fill="#000000" font-family="sans-serif" font-size="11" font-weight="bold" lengthAdjust="spacing" textLength="64" x="328" y="379.7729">[Absage2]</text><line style="stroke:#181818;stroke-width:1.0;" x1="376.5" x2="386.5" y1="404.5" y2="400.5"/><line style="stroke:#181818;stroke-width:1.0;" x1="376.5" x2="386.5" y1="404.5" y2="408.5"/><line style="stroke:#181818;stroke-width:1.0;" x1="376.5" x2="829.5" y1="404.5" y2="404.5"/><text fill="#000000" font-family="sans-serif" font-size="13" font-weight="bold" lengthAdjust="spacing" textLength="9" x="393.5" y="399.4341">8</text><text fill="#000000" font-family="sans-serif" font-size="13" lengthAdjust="spacing" textLength="109" x="406.5" y="399.4341">keine Teilnahme</text><line style="stroke:#181818;stroke-width:1.0;" x1="376.5" x2="418.5" y1="440.6328" y2="440.6328"/><line style="stroke:#181818;stroke-width:1.0;" x1="418.5" x2="418.5" y1="440.6328" y2="453.6328"/><line style="stroke:#181818;stroke-width:1.0;" x1="377.5" x2="418.5" y1="453.6328" y2="453.6328"/><polygon fill="#181818" points="387.5,449.6328,377.5,453.6328,387.5,457.6328,383.5,453.6328" style="stroke:#181818;stroke-width:1.0;"/><text fill="#000000" font-family="sans-serif" font-size="13" font-weight="bold" lengthAdjust="spacing" textLength="9" x="383.5" y="435.5669">9</text><text fill="#000000" font-family="sans-serif" font-size="13" lengthAdjust="spacing" textLength="219" x="396.5" y="435.5669">Überschneidung Vorzugstermine?</text><line style="stroke:#181818;stroke-width:1.0;" x1="376.5" x2="418.5" y1="482.7656" y2="482.7656"/><line style="stroke:#181818;stroke-width:1.0;" x1="418.5" x2="418.5" y1="482.7656" y2="495.7656"/><line style="stroke:#181818;stroke-width:1.0;" x1="377.5" x2="418.5" y1="495.7656" y2="495.7656"/><polygon fill="#181818" points="387.5,491.7656,377.5,495.7656,387.5,499.7656,383.5,495.7656" style="stroke:#181818;stroke-width:1.0;"/><text fill="#000000" font-family="sans-serif" font-size="13" font-weight="bold" lengthAdjust="spacing" textLength="18" x="383.5" y="477.6997">10</text><text fill="#000000" font-family="sans-serif" font-size="13" lengthAdjust="spacing" textLength="275" x="405.5" y="477.6997">ist Überschneidung in Ausschlusstermine?</text><path d="M40,510.7656 L109,510.7656 L109,517.8984 L99,527.8984 L40,527.8984 L40,510.7656 " fill="#EEEEEE" style="stroke:#000000;stroke-width:1.5;"/><rect fill="none" height="75.3984" style="stroke:#000000;stroke-width:1.5;" width="380" x="40" y="510.7656"/><text fill="#000000" font-family="sans-serif" font-size="13" font-weight="bold" lengthAdjust="spacing" textLength="24" x="55" y="523.8325">opt</text><text fill="#000000" font-family="sans-serif" font-size="11" font-weight="bold" lengthAdjust="spacing" textLength="139" x="124" y="522.9761">[Konflikt nicht gelöst]</text><polygon fill="#181818" points="100.5,545.0313,90.5,549.0313,100.5,553.0313,96.5,549.0313" style="stroke:#181818;stroke-width:1.0;"/><line style="stroke:#181818;stroke-width:1.0;" x1="94.5" x2="365.5" y1="549.0313" y2="549.0313"/><text fill="#000000" font-family="sans-serif" font-size="13" font-weight="bold" lengthAdjust="spacing" textLength="18" x="106.5" y="543.9653">11</text><text fill="#000000" font-family="sans-serif" font-size="13" lengthAdjust="spacing" textLength="179" x="128.5" y="543.9653">Meeting-Bereich erweitern?</text><line style="stroke:#181818;stroke-width:1.0;" x1="364.5" x2="354.5" y1="578.1641" y2="574.1641"/><line style="stroke:#181818;stroke-width:1.0;" x1="364.5" x2="354.5" y1="578.1641" y2="582.1641"/><line style="stroke:#181818;stroke-width:1.0;stroke-dasharray:2.0,2.0;" x1="84.5" x2="365.5" y1="578.1641" y2="578.1641"/><text fill="#000000" font-family="sans-serif" font-size="13" font-weight="bold" lengthAdjust="spacing" textLength="18" x="91.5" y="573.0981">12</text><text fill="#000000" font-family="sans-serif" font-size="13" lengthAdjust="spacing" textLength="106" x="113.5" y="573.0981">Meeting-Bereich</text><path d="M40,600.1641 L127,600.1641 L127,607.2969 L117,617.2969 L40,617.2969 L40,600.1641 " fill="#EEEEEE" style="stroke:#000000;stroke-width:1.5;"/><rect fill="none" height="75.3984" style="stroke:#000000;stroke-width:1.5;" width="380" x="40" y="600.1641"/><text fill="#000000" font-family="sans-serif" font-size="13" font-weight="bold" lengthAdjust="spacing" textLength="42" x="55" y="613.231">break</text><text fill="#000000" font-family="sans-serif" font-size="11" font-weight="bold" lengthAdjust="spacing" textLength="116" x="142" y="612.3745">[Termin gefunden]</text><polygon fill="#181818" points="100.5,634.4297,90.5,638.4297,100.5,642.4297,96.5,638.4297" style="stroke:#181818;stroke-width:1.0;"/><line style="stroke:#181818;stroke-width:1.0;" x1="94.5" x2="365.5" y1="638.4297" y2="638.4297"/><text fill="#000000" font-family="sans-serif" font-size="13" font-weight="bold" lengthAdjust="spacing" textLength="18" x="106.5" y="633.3638">13</text><text fill="#000000" font-family="sans-serif" font-size="13" lengthAdjust="spacing" textLength="164" x="128.5" y="633.3638">Termin gefunden, Raum?</text><line style="stroke:#181818;stroke-width:1.0;" x1="364.5" x2="354.5" y1="667.5625" y2="663.5625"/><line style="stroke:#181818;stroke-width:1.0;" x1="364.5" x2="354.5" y1="667.5625" y2="671.5625"/><line style="stroke:#181818;stroke-width:1.0;stroke-dasharray:2.0,2.0;" x1="84.5" x2="365.5" y1="667.5625" y2="667.5625"/><text fill="#000000" font-family="sans-serif" font-size="13" font-weight="bold" lengthAdjust="spacing" textLength="18" x="91.5" y="662.4966">14</text><text fill="#000000" font-family="sans-serif" font-size="13" lengthAdjust="spacing" textLength="38" x="113.5" y="662.4966">Raum</text><line style="stroke:#181818;stroke-width:1.0;" x1="713.5" x2="703.5" y1="710.6953" y2="706.6953"/><line style="stroke:#181818;stroke-width:1.0;" x1="713.5" x2="703.5" y1="710.6953" y2="714.6953"/><line style="stroke:#181818;stroke-width:1.0;" x1="376.5" x2="714.5" y1="710.6953" y2="710.6953"/><text fill="#000000" font-family="sans-serif" font-size="13" font-weight="bold" lengthAdjust="spacing" textLength="18" x="383.5" y="705.6294">15</text><text fill="#000000" font-family="sans-serif" font-size="13" lengthAdjust="spacing" textLength="230" x="405.5" y="705.6294">Termin, Raum, Terminbestätigung?</text><line style="stroke:#181818;stroke-width:1.0;" x1="828.5" x2="818.5" y1="739.8281" y2="735.8281"/><line style="stroke:#181818;stroke-width:1.0;" x1="828.5" x2="818.5" y1="739.8281" y2="743.8281"/><line style="stroke:#181818;stroke-width:1.0;" x1="376.5" x2="829.5" y1="739.8281" y2="739.8281"/><text fill="#000000" font-family="sans-serif" font-size="13" font-weight="bold" lengthAdjust="spacing" textLength="18" x="383.5" y="734.7622">16</text><text fill="#000000" font-family="sans-serif" font-size="13" lengthAdjust="spacing" textLength="230" x="405.5" y="734.7622">Termin, Raum, Terminbestätigung?</text><path d="M323,754.8281 L392,754.8281 L392,761.9609 L382,771.9609 L323,771.9609 L323,754.8281 " fill="#EEEEEE" style="stroke:#000000;stroke-width:1.5;"/><rect fill="none" height="46.2656" style="stroke:#000000;stroke-width:1.5;" width="460" x="323" y="754.8281"/><text fill="#000000" font-family="sans-serif" font-size="13" font-weight="bold" lengthAdjust="spacing" textLength="24" x="338" y="767.895">opt</text><text fill="#000000" font-family="sans-serif" font-size="11" font-weight="bold" lengthAdjust="spacing" textLength="136" x="407" y="767.0386">[Terminbestätigung1]</text><line style="stroke:#181818;stroke-width:1.0;" x1="376.5" x2="386.5" y1="793.0938" y2="789.0938"/><line style="stroke:#181818;stroke-width:1.0;" x1="376.5" x2="386.5" y1="793.0938" y2="797.0938"/><line style="stroke:#181818;stroke-width:1.0;" x1="376.5" x2="714.5" y1="793.0938" y2="793.0938"/><text fill="#000000" font-family="sans-serif" font-size="13" font-weight="bold" lengthAdjust="spacing" textLength="18" x="393.5" y="788.0278">17</text><text fill="#000000" font-family="sans-serif" font-size="13" lengthAdjust="spacing" textLength="123" x="415.5" y="788.0278">Terminbestätigung</text><path d="M323,815.0938 L392,815.0938 L392,822.2266 L382,832.2266 L323,832.2266 L323,815.0938 " fill="#EEEEEE" style="stroke:#000000;stroke-width:1.5;"/><rect fill="none" height="46.2656" style="stroke:#000000;stroke-width:1.5;" width="575" x="323" y="815.0938"/><text fill="#000000" font-family="sans-serif" font-size="13" font-weight="bold" lengthAdjust="spacing" textLength="24" x="338" y="828.1606">opt</text><text fill="#000000" font-family="sans-serif" font-size="11" font-weight="bold" lengthAdjust="spacing" textLength="136" x="407" y="827.3042">[Terminbestätigung2]</text><line style="stroke:#181818;stroke-width:1.0;" x1="376.5" x2="386.5" y1="853.3594" y2="849.3594"/><line style="stroke:#181818;stroke-width:1.0;" x1="376.5" x2="386.5" y1="853.3594" y2="857.3594"/><line style="stroke:#181818;stroke-width:1.0;" x1="376.5" x2="829.5" y1="853.3594" y2="853.3594"/><text fill="#000000" font-family="sans-serif" font-size="13" font-weight="bold" lengthAdjust="spacing" textLength="18" x="393.5" y="848.2935">18</text><text fill="#000000" font-family="sans-serif" font-size="13" lengthAdjust="spacing" textLength="123" x="415.5" y="848.2935">Terminbestätigung</text><polygon fill="#181818" points="983,885.4922,993,889.4922,983,893.4922,987,889.4922" style="stroke:#181818;stroke-width:1.0;"/><line style="stroke:#181818;stroke-width:1.0;" x1="376.5" x2="989" y1="889.4922" y2="889.4922"/><text fill="#000000" font-family="sans-serif" font-size="13" font-weight="bold" lengthAdjust="spacing" textLength="18" x="383.5" y="884.4263">19</text><text fill="#000000" font-family="sans-serif" font-size="13" lengthAdjust="spacing" textLength="92" x="405.5" y="884.4263">Termin, Raum</text><line style="stroke:#181818;stroke-width:1.0;" x1="1005" x2="1047" y1="918.625" y2="918.625"/><line style="stroke:#181818;stroke-width:1.0;" x1="1047" x2="1047" y1="918.625" y2="931.625"/><line style="stroke:#181818;stroke-width:1.0;" x1="1006" x2="1047" y1="931.625" y2="931.625"/><polygon fill="#181818" points="1016,927.625,1006,931.625,1016,935.625,1012,931.625" style="stroke:#181818;stroke-width:1.0;"/><text fill="#000000" font-family="sans-serif" font-size="13" font-weight="bold" lengthAdjust="spacing" textLength="18" x="1012" y="913.5591">20</text><text fill="#000000" font-family="sans-serif" font-size="13" lengthAdjust="spacing" textLength="164" x="1034" y="913.5591">Verfügbarkeit überprüfen</text><path d="M40,946.625 L104,946.625 L104,953.7578 L94,963.7578 L40,963.7578 L40,946.625 " fill="#EEEEEE" style="stroke:#000000;stroke-width:1.5;"/><rect fill="none" height="134.3047" style="stroke:#000000;stroke-width:1.5;" width="1072" x="40" y="946.625"/><text fill="#000000" font-family="sans-serif" font-size="13" font-weight="bold" lengthAdjust="spacing" textLength="19" x="55" y="959.6919">alt</text><text fill="#000000" font-family="sans-serif" font-size="11" font-weight="bold" lengthAdjust="spacing" textLength="108" x="119" y="958.8354">[Raum verfügbar]</text><line style="stroke:#181818;stroke-width:1.0;" x1="376.5" x2="386.5" y1="984.8906" y2="980.8906"/><line style="stroke:#181818;stroke-width:1.0;" x1="376.5" x2="386.5" y1="984.8906" y2="988.8906"/><line style="stroke:#181818;stroke-width:1.0;stroke-dasharray:2.0,2.0;" x1="376.5" x2="994" y1="984.8906" y2="984.8906"/><text fill="#000000" font-family="sans-serif" font-size="13" font-weight="bold" lengthAdjust="spacing" textLength="18" x="393.5" y="979.8247">21</text><text fill="#000000" font-family="sans-serif" font-size="13" lengthAdjust="spacing" textLength="105" x="415.5" y="979.8247">Raum verfügbar</text><line style="stroke:#000000;stroke-width:1.0;stroke-dasharray:2.0,2.0;" x1="40" x2="1112" y1="993.8906" y2="993.8906"/><text fill="#000000" font-family="sans-serif" font-size="11" font-weight="bold" lengthAdjust="spacing" textLength="87" x="45" y="1004.1011">[Raum belegt]</text><line style="stroke:#181818;stroke-width:1.0;" x1="376.5" x2="386.5" y1="1028.8281" y2="1024.8281"/><line style="stroke:#181818;stroke-width:1.0;" x1="376.5" x2="386.5" y1="1028.8281" y2="1032.8281"/><line style="stroke:#181818;stroke-width:1.0;stroke-dasharray:2.0,2.0;" x1="376.5" x2="999" y1="1028.8281" y2="1028.8281"/><text fill="#000000" font-family="sans-serif" font-size="13" font-weight="bold" lengthAdjust="spacing" textLength="18" x="393.5" y="1023.7622">22</text><text fill="#000000" font-family="sans-serif" font-size="13" lengthAdjust="spacing" textLength="83" x="415.5" y="1023.7622">Raum belegt</text><rect height="39.1016" style="stroke:#000000;stroke-width:1.5;fill:none;" width="366" x="47" y="1036.8281"/><path d="M47,1036.8281 L113,1036.8281 L113,1043.8281 L103,1053.8281 L47,1053.8281 L47,1036.8281 " fill="#EEEEEE" style="stroke:#000000;stroke-width:2.0;"/><text fill="#000000" font-family="sans-serif" font-size="13" font-weight="bold" lengthAdjust="spacing" textLength="21" x="60" y="1050.895">ref</text><text fill="#000000" font-family="sans-serif" font-size="12" lengthAdjust="spacing" textLength="71" x="194.5" y="1068.9668">Umplanung</text><polygon fill="#181818" points="1193,1105.0625,1203,1109.0625,1193,1113.0625,1197,1109.0625" style="stroke:#181818;stroke-width:1.0;"/><line style="stroke:#181818;stroke-width:1.0;" x1="376.5" x2="1199" y1="1109.0625" y2="1109.0625"/><text fill="#000000" font-family="sans-serif" font-size="13" font-weight="bold" lengthAdjust="spacing" textLength="18" x="383.5" y="1103.9966">23</text><text fill="#000000" font-family="sans-serif" font-size="13" lengthAdjust="spacing" textLength="90" x="405.5" y="1103.9966">Geräte, Raum</text><path d="M20,1124.0625 L84,1124.0625 L84,1131.1953 L74,1141.1953 L20,1141.1953 L20,1124.0625 " fill="#EEEEEE" style="stroke:#000000;stroke-width:1.5;"/><rect fill="none" height="428.3359" style="stroke:#000000;stroke-width:1.5;" width="1378" x="20" y="1124.0625"/><text fill="#000000" font-family="sans-serif" font-size="13" font-weight="bold" lengthAdjust="spacing" textLength="19" x="35" y="1137.1294">alt</text><text fill="#000000" font-family="sans-serif" font-size="11" font-weight="bold" lengthAdjust="spacing" textLength="100" x="99" y="1136.2729">[Geräte sind da]</text><line style="stroke:#181818;stroke-width:1.0;" x1="1215" x2="1257" y1="1162.3281" y2="1162.3281"/><line style="stroke:#181818;stroke-width:1.0;" x1="1257" x2="1257" y1="1162.3281" y2="1175.3281"/><line style="stroke:#181818;stroke-width:1.0;" x1="1216" x2="1257" y1="1175.3281" y2="1175.3281"/><polygon fill="#181818" points="1226,1171.3281,1216,1175.3281,1226,1179.3281,1222,1175.3281" style="stroke:#181818;stroke-width:1.0;"/><text fill="#000000" font-family="sans-serif" font-size="13" font-weight="bold" lengthAdjust="spacing" textLength="18" x="1222" y="1157.2622">24</text><text fill="#000000" font-family="sans-serif" font-size="13" lengthAdjust="spacing" textLength="142" x="1244" y="1157.2622">Geräte in Raum legen</text><line style="stroke:#181818;stroke-width:1.0;" x1="376.5" x2="386.5" y1="1204.4609" y2="1200.4609"/><line style="stroke:#181818;stroke-width:1.0;" x1="376.5" x2="386.5" y1="1204.4609" y2="1208.4609"/><line style="stroke:#181818;stroke-width:1.0;stroke-dasharray:2.0,2.0;" x1="376.5" x2="1204" y1="1204.4609" y2="1204.4609"/><text fill="#000000" font-family="sans-serif" font-size="13" font-weight="bold" lengthAdjust="spacing" textLength="18" x="393.5" y="1199.395">25</text><text fill="#000000" font-family="sans-serif" font-size="13" lengthAdjust="spacing" textLength="117" x="415.5" y="1199.395">Geräte vorhanden</text><path d="M323,1219.4609 L410,1219.4609 L410,1226.5938 L400,1236.5938 L323,1236.5938 L323,1219.4609 " fill="#EEEEEE" style="stroke:#000000;stroke-width:1.5;"/><rect fill="none" height="59.2656" style="stroke:#000000;stroke-width:1.5;" width="283.5" x="323" y="1219.4609"/><text fill="#000000" font-family="sans-serif" font-size="13" font-weight="bold" lengthAdjust="spacing" textLength="42" x="338" y="1232.5278">break</text><line style="stroke:#181818;stroke-width:1.0;" x1="376.5" x2="418.5" y1="1257.7266" y2="1257.7266"/><line style="stroke:#181818;stroke-width:1.0;" x1="418.5" x2="418.5" y1="1257.7266" y2="1270.7266"/><line style="stroke:#181818;stroke-width:1.0;" x1="377.5" x2="418.5" y1="1270.7266" y2="1270.7266"/><polygon fill="#181818" points="387.5,1266.7266,377.5,1270.7266,387.5,1274.7266,383.5,1270.7266" style="stroke:#181818;stroke-width:1.0;"/><text fill="#000000" font-family="sans-serif" font-size="13" font-weight="bold" lengthAdjust="spacing" textLength="18" x="383.5" y="1252.6606">26</text><text fill="#000000" font-family="sans-serif" font-size="13" lengthAdjust="spacing" textLength="189" x="405.5" y="1252.6606">Meeting zustandegekommen</text><line style="stroke:#000000;stroke-width:1.0;stroke-dasharray:2.0,2.0;" x1="20" x2="1398" y1="1286.7266" y2="1286.7266"/><text fill="#000000" font-family="sans-serif" font-size="11" font-weight="bold" lengthAdjust="spacing" textLength="105" x="25" y="1296.937">[Geräte nicht da]</text><line style="stroke:#181818;stroke-width:1.0;" x1="376.5" x2="386.5" y1="1321.6641" y2="1317.6641"/><line style="stroke:#181818;stroke-width:1.0;" x1="376.5" x2="386.5" y1="1321.6641" y2="1325.6641"/><line style="stroke:#181818;stroke-width:1.0;stroke-dasharray:2.0,2.0;" x1="376.5" x2="1209" y1="1321.6641" y2="1321.6641"/><text fill="#000000" font-family="sans-serif" font-size="13" font-weight="bold" lengthAdjust="spacing" textLength="18" x="393.5" y="1316.5981">27</text><text fill="#000000" font-family="sans-serif" font-size="13" lengthAdjust="spacing" textLength="153" x="415.5" y="1316.5981">Geräte nicht vorhanden</text><polygon fill="#181818" points="100.5,1346.7969,90.5,1350.7969,100.5,1354.7969,96.5,1350.7969" style="stroke:#181818;stroke-width:1.0;"/><line style="stroke:#181818;stroke-width:1.0;" x1="94.5" x2="365.5" y1="1350.7969" y2="1350.7969"/><text fill="#000000" font-family="sans-serif" font-size="13" font-weight="bold" lengthAdjust="spacing" textLength="18" x="106.5" y="1345.731">28</text><text fill="#000000" font-family="sans-serif" font-size="13" lengthAdjust="spacing" textLength="82" x="128.5" y="1345.731">Umplanung?</text><path d="M30,1365.7969 L94,1365.7969 L94,1372.9297 L84,1382.9297 L30,1382.9297 L30,1365.7969 " fill="#EEEEEE" style="stroke:#000000;stroke-width:1.5;"/><rect fill="none" height="179.6016" style="stroke:#000000;stroke-width:1.5;" width="878" x="30" y="1365.7969"/><text fill="#000000" font-family="sans-serif" font-size="13" font-weight="bold" lengthAdjust="spacing" textLength="19" x="45" y="1378.8638">alt</text><text fill="#000000" font-family="sans-serif" font-size="11" font-weight="bold" lengthAdjust="spacing" textLength="81" x="109" y="1378.0073">[Umplanung]</text><line style="stroke:#181818;stroke-width:1.0;" x1="364.5" x2="354.5" y1="1404.0625" y2="1400.0625"/><line style="stroke:#181818;stroke-width:1.0;" x1="364.5" x2="354.5" y1="1404.0625" y2="1408.0625"/><line style="stroke:#181818;stroke-width:1.0;stroke-dasharray:2.0,2.0;" x1="89.5" x2="365.5" y1="1404.0625" y2="1404.0625"/><text fill="#000000" font-family="sans-serif" font-size="13" font-weight="bold" lengthAdjust="spacing" textLength="18" x="96.5" y="1398.9966">29</text><text fill="#000000" font-family="sans-serif" font-size="13" lengthAdjust="spacing" textLength="75" x="118.5" y="1398.9966">Umplanung</text><line style="stroke:#000000;stroke-width:1.0;stroke-dasharray:2.0,2.0;" x1="30" x2="908" y1="1413.0625" y2="1413.0625"/><text fill="#000000" font-family="sans-serif" font-size="11" font-weight="bold" lengthAdjust="spacing" textLength="110" x="35" y="1423.2729">[Absage Meeting]</text><path d="M40,1433.8672 L127,1433.8672 L127,1441 L117,1451 L40,1451 L40,1433.8672 " fill="#EEEEEE" style="stroke:#000000;stroke-width:1.5;"/><rect fill="none" height="104.5313" style="stroke:#000000;stroke-width:1.5;" width="858" x="40" y="1433.8672"/><text fill="#000000" font-family="sans-serif" font-size="13" font-weight="bold" lengthAdjust="spacing" textLength="42" x="55" y="1446.9341">break</text><text fill="#000000" font-family="sans-serif" font-size="11" font-weight="bold" lengthAdjust="spacing" textLength="56" x="142" y="1446.0776">[Absage]</text><line style="stroke:#181818;stroke-width:1.0;" x1="364.5" x2="354.5" y1="1472.1328" y2="1468.1328"/><line style="stroke:#181818;stroke-width:1.0;" x1="364.5" x2="354.5" y1="1472.1328" y2="1476.1328"/><line style="stroke:#181818;stroke-width:1.0;stroke-dasharray:2.0,2.0;" x1="84.5" x2="365.5" y1="1472.1328" y2="1472.1328"/><text fill="#000000" font-family="sans-serif" font-size="13" font-weight="bold" lengthAdjust="spacing" textLength="18" x="91.5" y="1467.0669">30</text><text fill="#000000" font-family="sans-serif" font-size="13" lengthAdjust="spacing" textLength="48" x="113.5" y="1467.0669">Absage</text><line style="stroke:#181818;stroke-width:1.0;" x1="718.5" x2="708.5" y1="1501.2656" y2="1497.2656"/><line style="stroke:#181818;stroke-width:1.0;" x1="718.5" x2="708.5" y1="1501.2656" y2="1505.2656"/><line style="stroke:#181818;stroke-width:1.0;" x1="376.5" x2="719.5" y1="1501.2656" y2="1501.2656"/><text fill="#000000" font-family="sans-serif" font-size="13" font-weight="bold" lengthAdjust="spacing" textLength="18" x="383.5" y="1496.1997">31</text><text fill="#000000" font-family="sans-serif" font-size="13" lengthAdjust="spacing" textLength="116" x="405.5" y="1496.1997">Meeting abgesagt</text><line style="stroke:#A80036;stroke-width:2.0;" x1="711.5" x2="729.5" y1="1492.2656" y2="1510.2656"/><line style="stroke:#A80036;stroke-width:2.0;" x1="711.5" x2="729.5" y1="1510.2656" y2="1492.2656"/><line style="stroke:#181818;stroke-width:1.0;" x1="833.5" x2="823.5" y1="1530.3984" y2="1526.3984"/><line style="stroke:#181818;stroke-width:1.0;" x1="833.5" x2="823.5" y1="1530.3984" y2="1534.3984"/><line style="stroke:#181818;stroke-width:1.0;" x1="376.5" x2="834.5" y1="1530.3984" y2="1530.3984"/><text fill="#000000" font-family="sans-serif" font-size="13" font-weight="bold" lengthAdjust="spacing" textLength="18" x="383.5" y="1525.3325">32</text><text fill="#000000" font-family="sans-serif" font-size="13" lengthAdjust="spacing" textLength="116" x="405.5" y="1525.3325">Meeting abgesagt</text><line style="stroke:#A80036;stroke-width:2.0;" x1="826.5" x2="844.5" y1="1521.3984" y2="1539.3984"/><line style="stroke:#A80036;stroke-width:2.0;" x1="826.5" x2="844.5" y1="1539.3984" y2="1521.3984"/><line style="stroke:#181818;stroke-width:1.0;" x1="89.5" x2="99.5" y1="1587.5313" y2="1583.5313"/><line style="stroke:#181818;stroke-width:1.0;" x1="89.5" x2="99.5" y1="1587.5313" y2="1591.5313"/><line style="stroke:#181818;stroke-width:1.0;" x1="89.5" x2="370.5" y1="1587.5313" y2="1587.5313"/><text fill="#000000" font-family="sans-serif" font-size="13" font-weight="bold" lengthAdjust="spacing" textLength="18" x="106.5" y="1582.4653">33</text><text fill="#000000" font-family="sans-serif" font-size="13" lengthAdjust="spacing" textLength="236" x="128.5" y="1582.4653">Raum vorhanden, Geräte vorhanden</text><line style="stroke:#A80036;stroke-width:2.0;" x1="75.5" x2="93.5" y1="1578.5313" y2="1596.5313"/><line style="stroke:#A80036;stroke-width:2.0;" x1="75.5" x2="93.5" y1="1596.5313" y2="1578.5313"/><!--MD5=[b38d7cb59f33b9308ffde72dcc6c9117]
@startuml
'https://plantuml.com/sequence-diagram
!theme _none_
autonumber

activate Initiator
Initiator ->> Software : Initiiere Meeting
activate Software



loop if Umplanung
    Initiator -> Software : Meeting-Bereich, Teilnehmer
    deactivate Initiator

    loop if kein Termin gefunden

        Software ->> Teilnehmer1 : Vorzugstermine?, Ausschlusstermine?, Geräte?
        activate Teilnehmer1
        Software ->> Teilnehmer2 : Vorzugstermine?, Ausschlusstermine?, Geräte?
        activate Teilnehmer2

        alt Teilnahme1
            Teilnehmer1 ->> Software : Vorzugstermine , Ausschlusstermine, Geräte
        else Ansage
            Teilnehmer1 ->> Software : keine Teilnahme
        end
        deactivate Teilnehmer1

        alt Teilnahme2
            Teilnehmer2 ->> Software : Vorzugstermine , Ausschlusstermine, Geräte
        else Absage2
            Teilnehmer2 ->> Software : keine Teilnahme
        end
        deactivate Teilnehmer2

        Software -> Software : Überschneidung Vorzugstermine?
        Software -> Software : ist Überschneidung in Ausschlusstermine?
        opt Konflikt nicht gelöst
            Software -> Initiator : Meeting-Bereich erweitern?
            activate Initiator
            Initiator - ->> Software : Meeting-Bereich
            deactivate Initiator
        end


        break Termin gefunden
            Software -> Initiator : Termin gefunden, Raum?
            activate Initiator
            Initiator - ->> Software : Raum
            deactivate Initiator
        end
    end

    Software ->> Teilnehmer1 : Termin, Raum, Terminbestätigung?
    activate Teilnehmer1
    Software ->> Teilnehmer2 : Termin, Raum, Terminbestätigung?
    activate Teilnehmer2

    opt Terminbestätigung1
        Teilnehmer1 ->> Software : Terminbestätigung
    end
    deactivate Teilnehmer1
    opt Terminbestätigung2
        Teilnehmer2 ->> Software : Terminbestätigung
    end
    deactivate Teilnehmer2
    Software -> Raumreservierungssystem : Termin, Raum
    activate Raumreservierungssystem
    Raumreservierungssystem -> Raumreservierungssystem : Verfügbarkeit überprüfen

    alt Raum verfügbar
        Raumreservierungssystem - ->> Software : Raum verfügbar
    else Raum belegt
        Raumreservierungssystem - ->> Software : Raum belegt
        ref over Initiator, Software
            Umplanung
        end ref
        deactivate Raumreservierungssystem
    end

    Software -> Hausmeister : Geräte, Raum
    activate Hausmeister
    alt Geräte sind da
        Hausmeister -> Hausmeister : Geräte in Raum legen
        Hausmeister - ->> Software : Geräte vorhanden
        break
            Software -> Software : Meeting zustandegekommen
        end
    else Geräte nicht da
        Hausmeister - ->> Software : Geräte nicht vorhanden
        deactivate Hausmeister
        Software -> Initiator : Umplanung?
        activate Initiator
        alt Umplanung
            Initiator - ->> Software : Umplanung
        else Absage Meeting
            break Absage
                Initiator - ->> Software : Absage
                deactivate Initiator
                Software ->> Teilnehmer1 : Meeting abgesagt
                destroy Teilnehmer1
                Software ->> Teilnehmer2 : Meeting abgesagt
                destroy Teilnehmer2
            end
        end
    end
end

Software ->> Initiator : Raum vorhanden, Geräte vorhanden
deactivate Software
activate Initiator
destroy Initiator
@enduml

@startuml
autonumber

activate Initiator
Initiator ->> Software : Initiiere Meeting
activate Software



loop if Umplanung
    Initiator -> Software : Meeting-Bereich, Teilnehmer
    deactivate Initiator

    loop if kein Termin gefunden

        Software ->> Teilnehmer1 : Vorzugstermine?, Ausschlusstermine?, Geräte?
        activate Teilnehmer1
        Software ->> Teilnehmer2 : Vorzugstermine?, Ausschlusstermine?, Geräte?
        activate Teilnehmer2

        alt Teilnahme1
            Teilnehmer1 ->> Software : Vorzugstermine , Ausschlusstermine, Geräte
        else Ansage
            Teilnehmer1 ->> Software : keine Teilnahme
        end
        deactivate Teilnehmer1

        alt Teilnahme2
            Teilnehmer2 ->> Software : Vorzugstermine , Ausschlusstermine, Geräte
        else Absage2
            Teilnehmer2 ->> Software : keine Teilnahme
        end
        deactivate Teilnehmer2

        Software -> Software : Überschneidung Vorzugstermine?
        Software -> Software : ist Überschneidung in Ausschlusstermine?
        opt Konflikt nicht gelöst
            Software -> Initiator : Meeting-Bereich erweitern?
            activate Initiator
            Initiator - ->> Software : Meeting-Bereich
            deactivate Initiator
        end


        break Termin gefunden
            Software -> Initiator : Termin gefunden, Raum?
            activate Initiator
            Initiator - ->> Software : Raum
            deactivate Initiator
        end
    end

    Software ->> Teilnehmer1 : Termin, Raum, Terminbestätigung?
    activate Teilnehmer1
    Software ->> Teilnehmer2 : Termin, Raum, Terminbestätigung?
    activate Teilnehmer2

    opt Terminbestätigung1
        Teilnehmer1 ->> Software : Terminbestätigung
    end
    deactivate Teilnehmer1
    opt Terminbestätigung2
        Teilnehmer2 ->> Software : Terminbestätigung
    end
    deactivate Teilnehmer2
    Software -> Raumreservierungssystem : Termin, Raum
    activate Raumreservierungssystem
    Raumreservierungssystem -> Raumreservierungssystem : Verfügbarkeit überprüfen

    alt Raum verfügbar
        Raumreservierungssystem - ->> Software : Raum verfügbar
    else Raum belegt
        Raumreservierungssystem - ->> Software : Raum belegt
        ref over Initiator, Software
            Umplanung
        end ref
        deactivate Raumreservierungssystem
    end

    Software -> Hausmeister : Geräte, Raum
    activate Hausmeister
    alt Geräte sind da
        Hausmeister -> Hausmeister : Geräte in Raum legen
        Hausmeister - ->> Software : Geräte vorhanden
        break
            Software -> Software : Meeting zustandegekommen
        end
    else Geräte nicht da
        Hausmeister - ->> Software : Geräte nicht vorhanden
        deactivate Hausmeister
        Software -> Initiator : Umplanung?
        activate Initiator
        alt Umplanung
            Initiator - ->> Software : Umplanung
        else Absage Meeting
            break Absage
                Initiator - ->> Software : Absage
                deactivate Initiator
                Software ->> Teilnehmer1 : Meeting abgesagt
                destroy Teilnehmer1
                Software ->> Teilnehmer2 : Meeting abgesagt
                destroy Teilnehmer2
            end
        end
    end
end

Software ->> Initiator : Raum vorhanden, Geräte vorhanden
deactivate Software
activate Initiator
destroy Initiator
@enduml

PlantUML version 1.2022.5(Sat Apr 30 12:55:52 CEST 2022)
(GPL source distribution)
Java Runtime: OpenJDK Runtime Environment
JVM: OpenJDK 64-Bit Server VM
Default Encoding: UTF-8
Language: de
Country: DE
--></g></svg>